<?xml version="1.0" encoding="UTF-8" standalone="no"?>
<svg
   xmlns:dc="http://purl.org/dc/elements/1.1/"
   xmlns:cc="http://creativecommons.org/ns#"
   xmlns:rdf="http://www.w3.org/1999/02/22-rdf-syntax-ns#"
   xmlns:svg="http://www.w3.org/2000/svg"
   xmlns="http://www.w3.org/2000/svg"
   xmlns:sodipodi="http://sodipodi.sourceforge.net/DTD/sodipodi-0.dtd"
   xmlns:inkscape="http://www.inkscape.org/namespaces/inkscape"
   id="ac9d9db3-c976-41a1-a1c2-ce888a7912c8"
   data-name="Layer 1"
   width="832.02831"
   height="646"
   viewBox="0 0 832.02831 646"
   version="1.1"
   sodipodi:docname="people.svg"
   inkscape:version="1.0.2-2 (e86c870879, 2021-01-15)">
  <metadata
     id="metadata1064">
    <rdf:RDF>
      <cc:Work
         rdf:about="">
        <dc:format>image/svg+xml</dc:format>
        <dc:type
           rdf:resource="http://purl.org/dc/dcmitype/StillImage" />
        <dc:title></dc:title>
      </cc:Work>
    </rdf:RDF>
  </metadata>
  <defs
     id="defs1062" />
  <sodipodi:namedview
     pagecolor="#ffffff"
     bordercolor="#666666"
     borderopacity="1"
     objecttolerance="10"
     gridtolerance="10"
     guidetolerance="10"
     inkscape:pageopacity="0"
     inkscape:pageshadow="2"
     inkscape:window-width="1920"
     inkscape:window-height="1017"
     id="namedview1060"
     showgrid="false"
     inkscape:zoom="1.0431541"
     inkscape:cx="449.6701"
     inkscape:cy="340.33649"
     inkscape:window-x="-8"
     inkscape:window-y="-8"
     inkscape:window-maximized="1"
     inkscape:current-layer="ac9d9db3-c976-41a1-a1c2-ce888a7912c8" />
  <g
     id="g1085"
     transform="matrix(-0.97229166,0,0,1,1060.8146,-174.47086)">
    <polygon
       points="686.952,593.062 701.385,587.7 715.399,625.419 705.62,629.052 "
       fill="#ffb7b7"
       id="polygon1019" />
    <path
       d="m 905.40052,760.971 -31.53152,11.7152 -0.14819,-0.39882 a 13.09338,13.09338 0 0 1 7.71251,-16.83295 l 7.8e-4,-2.9e-4 19.25843,-7.15522 z"
       transform="translate(-183.98585,-127)"
       fill="#2f2e41"
       id="path1021" />
    <polygon
       points="603.767,595.335 619.164,595.336 619.162,635.574 608.73,635.573 "
       fill="#ffb7b7"
       id="polygon1023" />
    <path
       d="m 804.95774,772.6862 -33.63758,-10e-4 v -0.42546 A 13.09339,13.09339 0 0 1 784.41284,759.167 h 8.4e-4 l 20.54468,8.3e-4 z"
       transform="translate(-183.98585,-127)"
       fill="#2f2e41"
       id="path1025" />
    <path
       d="m 850.90979,483.50462 -3.40369,-6.80737 -28.93133,14.46567 0.85092,5.95645 -5.531,7.23283 c 0,0 -9.36014,5.10553 -7.65829,22.124 l 1.70184,16.16751 2.1273,20.84758 -14.89111,51.48071 -7.6583,68.07372 -5.531,54.88444 26.804,-1.27638 24.67677,-89.34678 43.397,96.15413 29.78225,-7.65829 -40.84423,-95.30322 -5.10553,-39.99331 c 0,0 3.40368,-21.273 -12.76383,-35.73871 l 2.55277,-7.65829 v -9.43719 l 8.50921,-45.02179 z"
       transform="translate(-183.98585,-127)"
       fill="#2f2e41"
       id="path1027" />
    <rect
       x="808.34546"
       y="613.62109"
       width="68.961098"
       height="0.99996001"
       transform="rotate(-74.24881,666.94529,672.14989)"
       opacity="0.2"
       id="rect1029" />
    <rect
       x="624.37787"
       y="436.49124"
       width="41.69516"
       height="4.2546101"
       fill="#3f3d56"
       id="rect1031" />
    <ellipse
       cx="624.37787"
       cy="439.04401"
       rx="1.70184"
       ry="4.2546101"
       fill="#3f3d56"
       id="ellipse1033" />
    <circle
       cx="827.16656"
       cy="452.59753"
       r="22.681641"
       transform="rotate(-28.66322,486.62612,749.17005)"
       fill="#ffb7b7"
       id="circle1035" />
    <circle
       cx="677.8891"
       cy="297.43469"
       r="20.065769"
       fill="#2f2e41"
       id="circle1037" />
    <path
       d="m 887.33878,422.28541 a 20.06687,20.06687 0 1 1 -39.14289,8.22881 20.06708,20.06708 0 0 0 39.14289,-8.22881 z"
       transform="translate(-183.98585,-127)"
       fill="#2f2e41"
       id="path1039" />
    <path
       d="m 808.067,446.30036 a 23.72427,23.72427 0 1 0 14.157,-19.09959 c -3.96261,-3.19569 -8.8755,-2.20524 -12.86957,1.16743 -4.51668,3.81351 -5.85708,6.4332 -9.36,12.70453 3.44438,0.48375 4.62807,4.74387 8.07257,5.22763 z"
       transform="translate(-183.98585,-127)"
       fill="#2f2e41"
       id="path1041" />
    <path
       d="m 891.44105,514.51133 c -0.25386,6.72194 -0.75692,19.95277 -0.75692,20.62813 0,0.71163 -10.03072,21.48028 -14.364,30.41866 v 0.005 c -0.3083,0.63 -0.58473,1.20114 -0.82951,1.70428 a 4.0285,4.0285 0 0 1 -3.70315,2.27538 l -18.93734,-0.34 a 4.03611,4.03611 0 0 1 -3.96608,-3.93434 l -2.11229,-83.31478 a 2.05975,2.05975 0 0 1 2.05785,-2.11221 h 24.4219 a 5.4908,5.4908 0 0 1 4.94056,3.10032 l 11.72139,24.24972 a 15.4994,15.4994 0 0 1 1.52756,7.32025 z"
       transform="translate(-183.98585,-127)"
       fill="#268bf9"
       id="path1043" />
    <path
       d="M 848.55453,559.55075 A 54.23154,54.23154 0 0 1 835.6151,548.61527 60.00786,60.00786 0 0 1 820.65966,513.72708 c -0.96286,-11.07247 1.23419,-19.30274 6.53,-24.46263 6.73159,-6.55907 15.8944,-5.60606 16.28116,-5.562 l 0.41022,0.0465 6.20761,5.25261 -1.75662,2.076 -5.5545,-4.7 c -1.70019,-0.085 -8.64149,-0.10336 -13.712,4.85623 -4.66723,4.56519 -6.58376,12.05381 -5.69648,22.25783 a 57.30793,57.30793 0 0 0 14.20782,33.2369 52.6568,52.6568 0 0 0 12.2903,10.44039 z"
       transform="translate(-183.98585,-127)"
       fill="#268bf9"
       id="path1045" />
    <rect
       x="850.45111"
       y="531.28674"
       width="33.779709"
       height="0.90647"
       transform="rotate(-11.60623,150.54008,1373.404)"
       fill="#3f3d56"
       id="rect1047" />
    <rect
       x="862.15363"
       y="479.81912"
       width="0.90662998"
       height="52.694599"
       transform="rotate(-2.33745,-2341.991,4951.9173)"
       fill="#3f3d56"
       id="rect1049" />
    <path
       d="m 891.44105,514.51133 c -0.25386,6.72194 -0.75692,19.95277 -0.75692,20.62813 0,0.71163 -10.03072,21.48028 -14.364,30.41866 l 8.07712,-46.89939 a 10.33774,10.33774 0 0 1 6.71289,-7.973 15.21462,15.21462 0 0 1 0.33091,3.8256 z"
       transform="translate(-183.98585,-127)"
       fill="#3f3d56"
       id="path1051" />
    <path
       d="m 841.81531,612.79963 a 7.979,7.979 0 0 0 -2.5951,-11.95656 l 1.64153,-18.1595 -10.79217,-3.68908 -1.958,25.67728 a 8.02231,8.02231 0 0 0 13.70373,8.12786 z"
       transform="translate(-183.98585,-127)"
       fill="#ffb7b7"
       id="path1053" />
    <path
       d="m 843.22532,595.228 -19.12309,-0.69345 0.809,-92.22237 a 12.44854,12.44854 0 0 1 8.43338,-11.8485 11.30933,11.30933 0 0 1 7.11255,-0.006 12.45,12.45 0 0 1 8.42155,12.74221 z"
       transform="translate(-183.98585,-127)"
       fill="#cbcbcb"
       id="path1055" />
  </g>
  <path
     d="M1010.98659,773h-381a1,1,0,0,1,0-2h381a1,1,0,0,1,0,2Z"
     transform="translate(-183.98585 -127)"
     fill="#cbcbcb"
     id="path1057" />
</svg>
