<?xml version="1.0" encoding="UTF-8" standalone="no"?>
<svg
   xmlns:dc="http://purl.org/dc/elements/1.1/"
   xmlns:cc="http://creativecommons.org/ns#"
   xmlns:rdf="http://www.w3.org/1999/02/22-rdf-syntax-ns#"
   xmlns:svg="http://www.w3.org/2000/svg"
   xmlns="http://www.w3.org/2000/svg"
   xmlns:sodipodi="http://sodipodi.sourceforge.net/DTD/sodipodi-0.dtd"
   xmlns:inkscape="http://www.inkscape.org/namespaces/inkscape"
   id="b8eef085-bbb0-4c81-9a53-f8aa424b48dc"
   data-name="Layer 1"
   width="1063.13"
   height="672.74"
   viewBox="0 0 1063.13 672.74"
   version="1.1"
   sodipodi:docname="undraw_aircraft_fbvl.svg"
   inkscape:version="1.0.2-2 (e86c870879, 2021-01-15)">
  <metadata
     id="metadata555">
    <rdf:RDF>
      <cc:Work
         rdf:about="">
        <dc:format>image/svg+xml</dc:format>
        <dc:type
           rdf:resource="http://purl.org/dc/dcmitype/StillImage" />
      </cc:Work>
    </rdf:RDF>
  </metadata>
  <defs
     id="defs553" />
  <sodipodi:namedview
     pagecolor="#ffffff"
     bordercolor="#666666"
     borderopacity="1"
     objecttolerance="10"
     gridtolerance="10"
     guidetolerance="10"
     inkscape:pageopacity="0"
     inkscape:pageshadow="2"
     inkscape:window-width="1920"
     inkscape:window-height="1017"
     id="namedview551"
     showgrid="false"
     inkscape:zoom="0.86531837"
     inkscape:cx="479.94676"
     inkscape:cy="311.87455"
     inkscape:window-x="-8"
     inkscape:window-y="-8"
     inkscape:window-maximized="1"
     inkscape:current-layer="b8eef085-bbb0-4c81-9a53-f8aa424b48dc"
     inkscape:document-rotation="0" />
  <title
     id="title502">aircraft</title>
  <path
     d="m 858.53146,400.01434 c -9.77,3.6 -26.93,6.56 -46.79,8.94 -54,6.48 -128,8.78 -128,8.78 0,0 -380.40998,31.55 -665.519984,-85.79 0,0 -41.47,-21.74 -3,-51 a 125.29,125.29 0 0 1 18.82,-11.48 l 0.47,-0.47 a 99.89,99.89 0 0 1 14.13,-10.89 c 14.77,-9.55 39.71,-20.87 70.070004,-15.74 l 748.81998,121.11 c 0,0 27.35,23.11 -9,36.54 z"
     fill="#3f3d56"
     id="path504" />
  <path
     d="m 709.33146,345.12434 156.76,-111.22 69.09,11.95 -67.65,117.62 c 0,0 -156.4,1.25 -158.2,-18.35 z"
     fill="#3f3d56"
     id="path506" />
  <polygon
     points="678.36,197.15 537.31,260.6 493.23,309.92 315.78,274.2 628.03,186.63 "
     fill="#3f3d56"
     id="polygon508"
     transform="translate(-1.1085235,3.3543423)" />
  <path
     d="m 811.74146,408.95434 c -54,6.48 -128,8.78 -128,8.78 0,0 -380.40998,31.55 -665.519984,-85.79 0,0 -41.47,-21.74 -3,-51 l 0.13,0.54 c 0,0 61.52,41.58 355.459984,76.29 z"
     fill="#268bf9"
     id="path510" />
  <path
     d="m 761.55146,406.55434 139.6,57 35.07,-3.89 -83.5,-62.76 c 0,0 -101,-21.55 -91.17,9.65 z"
     fill="#3f3d56"
     id="path512" />
  <path
     d="m 65.971476,287.57434 c -6.66,0.11 -21.92,-11.06 -31.41,-18.58 a 99.89,99.89 0 0 1 14.13,-10.89 c 7.65,5.87 21.26,15.37 28.83,15 10.93,-0.45 -1.52,14.29 -11.55,14.47 z"
     fill="#268bf9"
     id="path514" />
  <path
     d="m 700.18146,603.58434 -89.63,4.69 -251.99998,-169.92 -46.78,-31.55 -22.72,-15.33 c 42.63,-36 216.55998,13.65 216.55998,13.65 3.33,2.81 4.39,7.48 4.24,12.64 -0.29,9.66 -4.83,21 -6.58,25.08 -0.42,1 -0.68,1.53 -0.68,1.53 z"
     fill="#3f3d56"
     id="path516" />
  <path
     d="m 405.00146,515.48434 -15.55,9.84 9.42,-17.13 a 15.35,15.35 0 0 0 -9.38,-3.35 h -0.25 a 17.21,17.21 0 0 1 -3.22,-0.24 l -5.26,3.34 2.25,-4.1 a 18.78,18.78 0 0 1 -9.2,-7 l -9.41,6 5.94,-10.82 c -5.5,-6.61 -12.91998,-10.66 -21.08998,-10.66 -9.79,0 -18.51,5.82 -24.14,14.9 a 18.06,18.06 0 0 1 -16,8.6 h -0.52 c -10.81,0 -19.57,12.25 -19.57,27.37 0,15.12 8.76,27.37 19.57,27.37 a 14.6,14.6 0 0 0 6.81,-1.71 28.28,28.28 0 0 1 23.69,-0.46 24.71,24.71 0 0 0 20.14,0 28.27,28.27 0 0 1 23.46998,0.45 14.72,14.72 0 0 0 6.75,1.67 c 10.81,0 19.57,-12.25 19.57,-27.37 a 34.77,34.77 0 0 0 -4.02,-16.7 z"
     fill="#f2f2f2"
     id="path518" />
  <path
     d="m 375.75146,555.53434 a 29,29 0 0 0 -16.76998,1.82 24.63,24.63 0 0 1 -20.13,0 28.21,28.21 0 0 0 -23.69,0.46 14.73,14.73 0 0 1 -6.82,1.71 c -9.6,0 -17.59,-9.68 -19.25,-22.44 a 18.26,18.26 0 0 0 4.8,-5.17 c 5.63,-9.07 14.35,-14.89 24.14,-14.89 9.79,0 18.42,5.7 24.04,14.7 a 18.5,18.5 0 0 0 15.95,8.77 h 0.25 c 7.63998,-0.02 14.25998,6.1 17.47998,15.04 z"
     opacity="0.03"
     id="path520" />
  <path
     d="m 844.00146,502.48434 -15.55,9.84 9.42,-17.13 a 15.35,15.35 0 0 0 -9.38,-3.35 h -0.25 a 17.21,17.21 0 0 1 -3.22,-0.24 l -5.26,3.34 2.25,-4.1 a 18.78,18.78 0 0 1 -9.2,-7 l -9.41,6 5.94,-10.82 c -5.5,-6.61 -12.92,-10.66 -21.09,-10.66 -9.79,0 -18.51,5.82 -24.14,14.9 a 18.06,18.06 0 0 1 -16,8.6 h -0.52 c -10.81,0 -19.57,12.25 -19.57,27.37 0,15.12 8.76,27.37 19.57,27.37 a 14.6,14.6 0 0 0 6.81,-1.71 28.28,28.28 0 0 1 23.69,-0.46 24.71,24.71 0 0 0 20.14,0 28.27,28.27 0 0 1 23.47,0.45 14.72,14.72 0 0 0 6.75,1.67 c 10.81,0 19.57,-12.25 19.57,-27.37 a 34.77,34.77 0 0 0 -4.02,-16.7 z"
     fill="#f2f2f2"
     id="path522" />
  <path
     d="m 814.75146,542.53434 a 29,29 0 0 0 -16.77,1.82 24.63,24.63 0 0 1 -20.13,0 28.21,28.21 0 0 0 -23.69,0.46 14.73,14.73 0 0 1 -6.82,1.71 c -9.6,0 -17.59,-9.68 -19.25,-22.44 a 18.26,18.26 0 0 0 4.8,-5.17 c 5.63,-9.07 14.35,-14.89 24.14,-14.89 9.79,0 18.42,5.7 24.04,14.7 a 18.5,18.5 0 0 0 16,8.77 h 0.25 c 7.59,-0.02 14.21,6.1 17.43,15.04 z"
     opacity="0.03"
     id="path524" />
  <path
     d="m 844.00146,174.48434 -15.55,9.84 9.42,-17.13 a 15.35,15.35 0 0 0 -9.38,-3.35 h -0.25 a 17.21,17.21 0 0 1 -3.22,-0.24 l -5.26,3.34 2.25,-4.1 a 18.78,18.78 0 0 1 -9.2,-7 l -9.41,6 5.94,-10.82 c -5.5,-6.61 -12.92,-10.66 -21.09,-10.66 -9.79,0 -18.51,5.82 -24.14,14.9 a 18.06,18.06 0 0 1 -16,8.6 h -0.52 c -10.81,0 -19.57,12.25 -19.57,27.37 0,15.12 8.76,27.37 19.57,27.37 a 14.6,14.6 0 0 0 6.81,-1.71 28.28,28.28 0 0 1 23.69,-0.46 24.71,24.71 0 0 0 20.14,0.05 28.27,28.27 0 0 1 23.47,0.45 14.72,14.72 0 0 0 6.75,1.67 c 10.81,0 19.57,-12.25 19.57,-27.37 a 34.77,34.77 0 0 0 -4.02,-16.75 z"
     fill="#f2f2f2"
     id="path526" />
  <path
     d="m 814.75146,214.53434 a 29,29 0 0 0 -16.77,1.82 24.63,24.63 0 0 1 -20.13,0 28.21,28.21 0 0 0 -23.69,0.46 14.73,14.73 0 0 1 -6.82,1.71 c -9.6,0 -17.59,-9.68 -19.25,-22.44 a 18.26,18.26 0 0 0 4.8,-5.17 c 5.63,-9.07 14.35,-14.89 24.14,-14.89 9.79,0 18.42,5.7 24.04,14.7 a 18.5,18.5 0 0 0 16,8.77 h 0.25 c 7.59,-0.02 14.21,6.1 17.43,15.04 z"
     opacity="0.03"
     id="path528" />
  <path
     d="m 201.98148,139.09434 -7.75,4.91 4.7,-8.54 a 7.62,7.62 0 0 0 -4.68,-1.68 h -0.12 a 9.54,9.54 0 0 1 -1.61,-0.12 l -2.62,1.66 1.12,-2 a 9.36,9.36 0 0 1 -4.59,-3.49 l -4.69,3 3,-5.39 a 13.71,13.71 0 0 0 -10.52,-5.32 c -4.88,0 -9.23,2.9 -12,7.43 a 9,9 0 0 1 -8,4.29 h -0.26 c -5.39,0 -9.76,6.12 -9.76,13.66 0,7.54 4.37,13.65 9.76,13.65 a 7.32,7.32 0 0 0 3.4,-0.85 14.07,14.07 0 0 1 11.82,-0.23 12.31,12.31 0 0 0 10,0 14.08,14.08 0 0 1 11.71,0.23 7.42,7.42 0 0 0 3.36,0.83 c 5.39,0 9.76,-6.11 9.76,-13.65 a 17.42,17.42 0 0 0 -2.03,-8.39 z"
     fill="#f2f2f2"
     id="path530" />
  <path
     d="m 187.39148,159.07434 a 14.36,14.36 0 0 0 -8.37,0.91 12.44,12.44 0 0 1 -5,1.06 12.26,12.26 0 0 1 -5.05,-1.09 14.1,14.1 0 0 0 -11.82,0.24 7.28,7.28 0 0 1 -3.39,0.85 c -4.79,0 -8.78,-4.83 -9.61,-11.19 a 9.4,9.4 0 0 0 2.4,-2.58 c 2.8,-4.53 7.15,-7.43 12,-7.43 4.85,0 9.18,2.87 12,7.34 a 9.22,9.22 0 0 0 8,4.37 h 0.13 c 3.77,0 7.1,3.06 8.71,7.52 z"
     opacity="0.03"
     id="path532" />
  <path
     d="m 891.98146,628.09434 -7.75,4.91 4.7,-8.54 a 7.62,7.62 0 0 0 -4.68,-1.68 h -0.12 a 9.54,9.54 0 0 1 -1.61,-0.12 l -2.62,1.66 1.12,-2 a 9.36,9.36 0 0 1 -4.59,-3.49 l -4.69,3 3,-5.39 a 13.71,13.71 0 0 0 -10.52,-5.32 c -4.88,0 -9.23,2.9 -12,7.43 a 9,9 0 0 1 -8,4.29 h -0.26 c -5.39,0 -9.76,6.12 -9.76,13.66 0,7.54 4.37,13.65 9.76,13.65 a 7.32,7.32 0 0 0 3.4,-0.85 14.07,14.07 0 0 1 11.82,-0.23 12.31,12.31 0 0 0 10,0 14.08,14.08 0 0 1 11.71,0.23 7.42,7.42 0 0 0 3.36,0.83 c 5.39,0 9.76,-6.11 9.76,-13.65 a 17.42,17.42 0 0 0 -2.03,-8.39 z"
     fill="#f2f2f2"
     id="path534" />
  <path
     d="m 877.39146,648.07434 a 14.36,14.36 0 0 0 -8.37,0.91 12.44,12.44 0 0 1 -5,1.06 12.26,12.26 0 0 1 -5.05,-1.09 14.1,14.1 0 0 0 -11.82,0.24 7.28,7.28 0 0 1 -3.39,0.85 c -4.79,0 -8.78,-4.83 -9.61,-11.19 a 9.4,9.4 0 0 0 2.4,-2.58 c 2.8,-4.53 7.15,-7.43 12,-7.43 4.85,0 9.18,2.87 12,7.34 a 9.22,9.22 0 0 0 8,4.37 h 0.13 c 3.77,0 7.1,3.06 8.71,7.52 z"
     opacity="0.03"
     id="path536" />
  <path
     d="m 171.98148,654.09434 -7.75,4.91 4.7,-8.54 a 7.62,7.62 0 0 0 -4.68,-1.68 h -0.12 a 9.54,9.54 0 0 1 -1.61,-0.12 l -2.62,1.66 1.12,-2 a 9.36,9.36 0 0 1 -4.59,-3.49 l -4.69,3 3,-5.39 a 13.71,13.71 0 0 0 -10.52,-5.32 c -4.88,0 -9.23,2.9 -12,7.43 a 9,9 0 0 1 -8,4.29 h -0.26 c -5.39,0 -9.76,6.12 -9.76,13.66 0,7.54 4.37,13.65 9.76,13.65 a 7.32,7.32 0 0 0 3.4,-0.85 14.07,14.07 0 0 1 11.82,-0.23 12.31,12.31 0 0 0 10,0 14.08,14.08 0 0 1 11.71,0.23 7.42,7.42 0 0 0 3.36,0.83 c 5.39,0 9.76,-6.11 9.76,-13.65 a 17.42,17.42 0 0 0 -2.03,-8.39 z"
     fill="#f2f2f2"
     id="path538" />
  <path
     d="m 157.39148,674.07434 a 14.36,14.36 0 0 0 -8.37,0.91 12.44,12.44 0 0 1 -5,1.06 12.26,12.26 0 0 1 -5.05,-1.09 14.1,14.1 0 0 0 -11.82,0.24 7.28,7.28 0 0 1 -3.39,0.85 c -4.79,0 -8.78,-4.83 -9.61,-11.19 a 9.4,9.4 0 0 0 2.4,-2.58 c 2.8,-4.53 7.15,-7.43 12,-7.43 4.85,0 9.18,2.87 12,7.34 a 9.22,9.22 0 0 0 8,4.37 h 0.13 c 3.77,0 7.1,3.06 8.71,7.52 z"
     opacity="0.03"
     id="path540" />
  <path
     d="m 530.00146,37.484342 -15.55,9.84 9.42,-17.13 a 15.35,15.35 0 0 0 -9.38,-3.35 h -0.25 a 17.21,17.21 0 0 1 -3.22,-0.24 l -5.26,3.34 2.25,-4.1 a 18.78,18.78 0 0 1 -9.2,-7 l -9.41,6 5.94,-10.82 c -5.5,-6.6099997 -12.92,-10.6599997 -21.09,-10.6599997 -9.79,0 -18.51,5.82 -24.14,14.8999997 a 18.06,18.06 0 0 1 -16,8.6 h -0.52 c -10.81,0 -19.57,12.25 -19.57,27.37 0,15.119997 8.76,27.369997 19.57,27.369997 a 14.6,14.6 0 0 0 6.81,-1.71 28.28,28.28 0 0 1 23.69,-0.46 24.71,24.71 0 0 0 20.14,0.05 28.27,28.27 0 0 1 23.47,0.45 14.72,14.72 0 0 0 6.75,1.67 c 10.81,0 19.57,-12.25 19.57,-27.369997 a 34.77,34.77 0 0 0 -4.02,-16.75 z"
     fill="#f2f2f2"
     id="path542" />
  <path
     d="m 500.75146,77.534339 a 29,29 0 0 0 -16.77,1.82 24.63,24.63 0 0 1 -20.13,0 28.21,28.21 0 0 0 -23.69,0.46 14.73,14.73 0 0 1 -6.82,1.71 c -9.6,0 -17.59,-9.68 -19.25,-22.439997 a 18.26,18.26 0 0 0 4.8,-5.17 c 5.63,-9.07 14.35,-14.89 24.14,-14.89 9.79,0 18.42,5.7 24.04,14.7 a 18.5,18.5 0 0 0 16,8.769997 h 0.25 c 7.59,-0.02 14.21,6.1 17.43,15.04 z"
     opacity="0.03"
     id="path544" />
  <path
     d="m 1059.9815,209.09434 -7.75,4.91 4.7,-8.54 a 7.62,7.62 0 0 0 -4.68,-1.68 h -0.12 a 9.54,9.54 0 0 1 -1.61,-0.12 l -2.62,1.66 1.12,-2 a 9.36,9.36 0 0 1 -4.59,-3.49 l -4.69,3 3,-5.39 a 13.71,13.71 0 0 0 -10.52,-5.32 c -4.88,0 -9.23,2.9 -12,7.43 a 9,9 0 0 1 -8,4.29 h -0.26 c -5.39,0 -9.76,6.12 -9.76,13.66 0,7.54 4.37,13.65 9.76,13.65 a 7.32,7.32 0 0 0 3.4,-0.85 14.07,14.07 0 0 1 11.82,-0.23 12.31,12.31 0 0 0 10,0 14.08,14.08 0 0 1 11.71,0.23 7.42,7.42 0 0 0 3.36,0.83 c 5.39,0 9.76,-6.11 9.76,-13.65 a 17.42,17.42 0 0 0 -2.03,-8.39 z"
     fill="#f2f2f2"
     id="path546" />
  <path
     d="m 1045.3915,229.07434 a 14.36,14.36 0 0 0 -8.37,0.91 12.44,12.44 0 0 1 -5,1.06 12.26,12.26 0 0 1 -5,-1.09 14.1,14.1 0 0 0 -11.82,0.24 7.28,7.28 0 0 1 -3.39,0.85 c -4.79,0 -8.78,-4.83 -9.61,-11.19 a 9.4,9.4 0 0 0 2.4,-2.58 c 2.8,-4.53 7.15,-7.43 12,-7.43 4.85,0 9.18,2.87 12,7.34 a 9.22,9.22 0 0 0 7.95,4.37 h 0.13 c 3.77,0 7.1,3.06 8.71,7.52 z"
     opacity="0.03"
     id="path548" />
</svg>
